<svg viewBox="-10 -10 120 120" xmlns="http://www.w3.org/2000/svg"><line x1="41.32232521764885" y1="38.01937735804839" x2="50" y2="25" stroke="black" stroke-width="2"/><line x1="46.09084258765985" y1="23.117449009293665" x2="41.32232521764885" y2="38.01937735804839" stroke="black" stroke-width="2"/><line x1="30.501441756363523" y1="24.450418679126265" x2="46.09084258765985" y2="23.117449009293665" stroke="black" stroke-width="2"/><line x1="45.12536043909088" y1="18.88739533021843" x2="30.501441756363523" y2="24.450418679126265" stroke="black" stroke-width="2"/><line x1="34.36337035063941" y1="7.5302039628253254" x2="45.12536043909088" y2="18.88739533021843" stroke="black" stroke-width="2"/><line x1="47.83058130441221" y1="15.495155660487903" x2="34.36337035063941" y2="7.5302039628253254" stroke="black" stroke-width="2"/><line x1="50" y1="0" x2="47.83058130441221" y2="15.495155660487903" stroke="black" stroke-width="2"/><line x1="52.169418695587794" y1="15.495155660487905" x2="50" y2="0" stroke="black" stroke-width="2"/><line x1="65.6366296493606" y1="7.530203962825331" x2="52.169418695587794" y2="15.495155660487905" stroke="black" stroke-width="2"/><line x1="54.87463956090912" y1="18.88739533021843" x2="65.6366296493606" y2="7.530203962825331" stroke="black" stroke-width="2"/><line x1="69.49855824363647" y1="24.450418679126287" x2="54.87463956090912" y2="18.88739533021843" stroke="black" stroke-width="2"/><line x1="53.90915741234015" y1="23.11744900929367" x2="69.49855824363647" y2="24.450418679126287" stroke="black" stroke-width="2"/><line x1="58.67767478235116" y1="38.01937735804839" x2="53.90915741234015" y2="23.11744900929367" stroke="black" stroke-width="2"/><line x1="50" y1="25" x2="58.67767478235116" y2="38.01937735804839" stroke="black" stroke-width="2"/><circle cx="25" cy="40" r="12" style="fill: #000000;"/><circle cx="75" cy="40" r="12" style="fill: #DC143C;"/><circle cx="75" cy="80" r="12" style="fill: #000000;"/><circle cx="25" cy="80" r="12" style="fill: #DC143C;"/><line x1="40" y1="55" x2="55" y2="55" stroke="#000000" stroke-width="2"/><path d=" M 60 55 L 52.5 59.33012701892219 L 52.5 50.66987298107781 Z" style="fill: #000000;"/><line x1="45" y1="65" x2="60" y2="65" stroke="#DC143C" stroke-width="2"/><path d=" M 40 65 L 47.5 60.66987298107781 L 47.5 69.3301270189222 Z" style="fill: #DC143C;"/></svg>